<mxfile host="app.diagrams.net" modified="2021-04-09T14:34:12.164Z" agent="5.0 (Windows NT 10.0; Win64; x64) AppleWebKit/537.36 (KHTML, like Gecko) Chrome/89.0.4389.114 Safari/537.36" etag="_H7C2nSMvcVuy7rwVo1_" version="14.5.7" type="github">
  <diagram id="MtlmLVmX0kC0SeTSsNeU" name="Page-1">
    <mxGraphModel dx="1270" dy="1112" grid="1" gridSize="10" guides="1" tooltips="1" connect="1" arrows="1" fold="1" page="1" pageScale="1" pageWidth="850" pageHeight="1100" math="0" shadow="0">
      <root>
        <mxCell id="0" />
        <mxCell id="1" parent="0" />
        <mxCell id="gpxcJEyNMizrMWe5Y_iX-6" style="edgeStyle=orthogonalEdgeStyle;rounded=0;orthogonalLoop=1;jettySize=auto;html=1;exitX=0.5;exitY=1;exitDx=0;exitDy=0;entryX=0.5;entryY=0;entryDx=0;entryDy=0;" edge="1" parent="1" source="gpxcJEyNMizrMWe5Y_iX-1" target="gpxcJEyNMizrMWe5Y_iX-4">
          <mxGeometry relative="1" as="geometry" />
        </mxCell>
        <mxCell id="gpxcJEyNMizrMWe5Y_iX-7" style="edgeStyle=orthogonalEdgeStyle;rounded=0;orthogonalLoop=1;jettySize=auto;html=1;exitX=0.5;exitY=1;exitDx=0;exitDy=0;" edge="1" parent="1" source="gpxcJEyNMizrMWe5Y_iX-1" target="gpxcJEyNMizrMWe5Y_iX-5">
          <mxGeometry relative="1" as="geometry" />
        </mxCell>
        <mxCell id="gpxcJEyNMizrMWe5Y_iX-8" style="edgeStyle=orthogonalEdgeStyle;rounded=0;orthogonalLoop=1;jettySize=auto;html=1;exitX=0.5;exitY=1;exitDx=0;exitDy=0;" edge="1" parent="1" source="gpxcJEyNMizrMWe5Y_iX-1" target="gpxcJEyNMizrMWe5Y_iX-3">
          <mxGeometry relative="1" as="geometry" />
        </mxCell>
        <mxCell id="gpxcJEyNMizrMWe5Y_iX-9" style="edgeStyle=orthogonalEdgeStyle;rounded=0;orthogonalLoop=1;jettySize=auto;html=1;exitX=0.5;exitY=1;exitDx=0;exitDy=0;" edge="1" parent="1" source="gpxcJEyNMizrMWe5Y_iX-1" target="gpxcJEyNMizrMWe5Y_iX-2">
          <mxGeometry relative="1" as="geometry" />
        </mxCell>
        <mxCell id="gpxcJEyNMizrMWe5Y_iX-1" value="&lt;font style=&quot;font-size: 16px&quot;&gt;CC20 Mesenger WBS&lt;/font&gt;" style="rounded=1;whiteSpace=wrap;html=1;" vertex="1" parent="1">
          <mxGeometry x="360" y="80" width="120" height="80" as="geometry" />
        </mxCell>
        <mxCell id="gpxcJEyNMizrMWe5Y_iX-13" style="edgeStyle=orthogonalEdgeStyle;rounded=0;orthogonalLoop=1;jettySize=auto;html=1;exitX=0.5;exitY=1;exitDx=0;exitDy=0;entryX=1;entryY=0.5;entryDx=0;entryDy=0;" edge="1" parent="1" source="gpxcJEyNMizrMWe5Y_iX-2" target="gpxcJEyNMizrMWe5Y_iX-10">
          <mxGeometry relative="1" as="geometry" />
        </mxCell>
        <mxCell id="gpxcJEyNMizrMWe5Y_iX-14" style="edgeStyle=orthogonalEdgeStyle;rounded=0;orthogonalLoop=1;jettySize=auto;html=1;exitX=0.5;exitY=1;exitDx=0;exitDy=0;entryX=1;entryY=0.578;entryDx=0;entryDy=0;entryPerimeter=0;" edge="1" parent="1" source="gpxcJEyNMizrMWe5Y_iX-2" target="gpxcJEyNMizrMWe5Y_iX-11">
          <mxGeometry relative="1" as="geometry" />
        </mxCell>
        <mxCell id="gpxcJEyNMizrMWe5Y_iX-15" style="edgeStyle=orthogonalEdgeStyle;rounded=0;orthogonalLoop=1;jettySize=auto;html=1;exitX=0.5;exitY=1;exitDx=0;exitDy=0;entryX=1;entryY=0.5;entryDx=0;entryDy=0;" edge="1" parent="1" source="gpxcJEyNMizrMWe5Y_iX-2" target="gpxcJEyNMizrMWe5Y_iX-12">
          <mxGeometry relative="1" as="geometry" />
        </mxCell>
        <mxCell id="gpxcJEyNMizrMWe5Y_iX-2" value="Planning and Pre-Development" style="rounded=1;whiteSpace=wrap;html=1;" vertex="1" parent="1">
          <mxGeometry x="80" y="220" width="120" height="60" as="geometry" />
        </mxCell>
        <mxCell id="gpxcJEyNMizrMWe5Y_iX-18" style="edgeStyle=orthogonalEdgeStyle;rounded=0;orthogonalLoop=1;jettySize=auto;html=1;exitX=0.5;exitY=1;exitDx=0;exitDy=0;entryX=0.5;entryY=0;entryDx=0;entryDy=0;" edge="1" parent="1" source="gpxcJEyNMizrMWe5Y_iX-3" target="gpxcJEyNMizrMWe5Y_iX-16">
          <mxGeometry relative="1" as="geometry" />
        </mxCell>
        <mxCell id="gpxcJEyNMizrMWe5Y_iX-19" style="edgeStyle=orthogonalEdgeStyle;rounded=0;orthogonalLoop=1;jettySize=auto;html=1;exitX=0.5;exitY=1;exitDx=0;exitDy=0;entryX=0.4;entryY=0.02;entryDx=0;entryDy=0;entryPerimeter=0;" edge="1" parent="1" source="gpxcJEyNMizrMWe5Y_iX-3" target="gpxcJEyNMizrMWe5Y_iX-17">
          <mxGeometry relative="1" as="geometry" />
        </mxCell>
        <mxCell id="gpxcJEyNMizrMWe5Y_iX-3" value="Initial Coding" style="rounded=1;whiteSpace=wrap;html=1;" vertex="1" parent="1">
          <mxGeometry x="240" y="220" width="120" height="60" as="geometry" />
        </mxCell>
        <mxCell id="gpxcJEyNMizrMWe5Y_iX-23" style="edgeStyle=orthogonalEdgeStyle;rounded=0;orthogonalLoop=1;jettySize=auto;html=1;exitX=0.5;exitY=1;exitDx=0;exitDy=0;" edge="1" parent="1" source="gpxcJEyNMizrMWe5Y_iX-4" target="gpxcJEyNMizrMWe5Y_iX-20">
          <mxGeometry relative="1" as="geometry" />
        </mxCell>
        <mxCell id="gpxcJEyNMizrMWe5Y_iX-25" style="edgeStyle=orthogonalEdgeStyle;rounded=0;orthogonalLoop=1;jettySize=auto;html=1;exitX=0.5;exitY=1;exitDx=0;exitDy=0;entryX=0.5;entryY=0;entryDx=0;entryDy=0;" edge="1" parent="1" source="gpxcJEyNMizrMWe5Y_iX-4" target="gpxcJEyNMizrMWe5Y_iX-24">
          <mxGeometry relative="1" as="geometry" />
        </mxCell>
        <mxCell id="gpxcJEyNMizrMWe5Y_iX-28" style="edgeStyle=orthogonalEdgeStyle;rounded=0;orthogonalLoop=1;jettySize=auto;html=1;exitX=0.5;exitY=1;exitDx=0;exitDy=0;entryX=0.5;entryY=0;entryDx=0;entryDy=0;" edge="1" parent="1" source="gpxcJEyNMizrMWe5Y_iX-4" target="gpxcJEyNMizrMWe5Y_iX-27">
          <mxGeometry relative="1" as="geometry" />
        </mxCell>
        <mxCell id="gpxcJEyNMizrMWe5Y_iX-4" value="Testing and Design Updates" style="rounded=1;whiteSpace=wrap;html=1;" vertex="1" parent="1">
          <mxGeometry x="480" y="220" width="120" height="60" as="geometry" />
        </mxCell>
        <mxCell id="gpxcJEyNMizrMWe5Y_iX-33" style="edgeStyle=orthogonalEdgeStyle;rounded=0;orthogonalLoop=1;jettySize=auto;html=1;exitX=0.5;exitY=1;exitDx=0;exitDy=0;entryX=0;entryY=0.5;entryDx=0;entryDy=0;" edge="1" parent="1" source="gpxcJEyNMizrMWe5Y_iX-5" target="gpxcJEyNMizrMWe5Y_iX-30">
          <mxGeometry relative="1" as="geometry" />
        </mxCell>
        <mxCell id="gpxcJEyNMizrMWe5Y_iX-34" style="edgeStyle=orthogonalEdgeStyle;rounded=0;orthogonalLoop=1;jettySize=auto;html=1;exitX=0.5;exitY=1;exitDx=0;exitDy=0;entryX=0;entryY=0.5;entryDx=0;entryDy=0;" edge="1" parent="1" source="gpxcJEyNMizrMWe5Y_iX-5" target="gpxcJEyNMizrMWe5Y_iX-31">
          <mxGeometry relative="1" as="geometry" />
        </mxCell>
        <mxCell id="gpxcJEyNMizrMWe5Y_iX-35" style="edgeStyle=orthogonalEdgeStyle;rounded=0;orthogonalLoop=1;jettySize=auto;html=1;exitX=0.5;exitY=1;exitDx=0;exitDy=0;entryX=0;entryY=0.5;entryDx=0;entryDy=0;" edge="1" parent="1" source="gpxcJEyNMizrMWe5Y_iX-5" target="gpxcJEyNMizrMWe5Y_iX-32">
          <mxGeometry relative="1" as="geometry" />
        </mxCell>
        <mxCell id="gpxcJEyNMizrMWe5Y_iX-5" value="Final Changes and Release" style="rounded=1;whiteSpace=wrap;html=1;" vertex="1" parent="1">
          <mxGeometry x="640" y="220" width="120" height="60" as="geometry" />
        </mxCell>
        <mxCell id="gpxcJEyNMizrMWe5Y_iX-10" value="Pitch, Proposal" style="rounded=1;whiteSpace=wrap;html=1;" vertex="1" parent="1">
          <mxGeometry x="30" y="320" width="80" height="90" as="geometry" />
        </mxCell>
        <mxCell id="gpxcJEyNMizrMWe5Y_iX-11" value="Research" style="rounded=1;whiteSpace=wrap;html=1;" vertex="1" parent="1">
          <mxGeometry x="30" y="440" width="80" height="90" as="geometry" />
        </mxCell>
        <mxCell id="gpxcJEyNMizrMWe5Y_iX-12" value="Diagram and SPMP development" style="rounded=1;whiteSpace=wrap;html=1;" vertex="1" parent="1">
          <mxGeometry x="30" y="560" width="80" height="90" as="geometry" />
        </mxCell>
        <mxCell id="gpxcJEyNMizrMWe5Y_iX-16" value="Front-End" style="rounded=1;whiteSpace=wrap;html=1;" vertex="1" parent="1">
          <mxGeometry x="210" y="360" width="80" height="100" as="geometry" />
        </mxCell>
        <mxCell id="gpxcJEyNMizrMWe5Y_iX-17" value="Back-End" style="rounded=1;whiteSpace=wrap;html=1;" vertex="1" parent="1">
          <mxGeometry x="320" y="360" width="80" height="100" as="geometry" />
        </mxCell>
        <mxCell id="gpxcJEyNMizrMWe5Y_iX-22" style="edgeStyle=orthogonalEdgeStyle;rounded=0;orthogonalLoop=1;jettySize=auto;html=1;exitX=0.5;exitY=0;exitDx=0;exitDy=0;" edge="1" parent="1" source="gpxcJEyNMizrMWe5Y_iX-20">
          <mxGeometry relative="1" as="geometry">
            <mxPoint x="465" y="360" as="targetPoint" />
          </mxGeometry>
        </mxCell>
        <mxCell id="gpxcJEyNMizrMWe5Y_iX-20" value="Unit Tests" style="rounded=1;whiteSpace=wrap;html=1;" vertex="1" parent="1">
          <mxGeometry x="440" y="360" width="80" height="100" as="geometry" />
        </mxCell>
        <mxCell id="gpxcJEyNMizrMWe5Y_iX-24" value="Debugging" style="rounded=1;whiteSpace=wrap;html=1;" vertex="1" parent="1">
          <mxGeometry x="560" y="360" width="80" height="100" as="geometry" />
        </mxCell>
        <mxCell id="gpxcJEyNMizrMWe5Y_iX-27" value="Potential Design Changes" style="rounded=1;whiteSpace=wrap;html=1;" vertex="1" parent="1">
          <mxGeometry x="500" y="490" width="80" height="100" as="geometry" />
        </mxCell>
        <mxCell id="gpxcJEyNMizrMWe5Y_iX-30" value="Final Testing" style="rounded=1;whiteSpace=wrap;html=1;" vertex="1" parent="1">
          <mxGeometry x="730" y="320" width="80" height="90" as="geometry" />
        </mxCell>
        <mxCell id="gpxcJEyNMizrMWe5Y_iX-31" value="Low Priority Fixes" style="rounded=1;whiteSpace=wrap;html=1;" vertex="1" parent="1">
          <mxGeometry x="730" y="440" width="80" height="90" as="geometry" />
        </mxCell>
        <mxCell id="gpxcJEyNMizrMWe5Y_iX-32" value="Project Release" style="rounded=1;whiteSpace=wrap;html=1;" vertex="1" parent="1">
          <mxGeometry x="730" y="560" width="80" height="90" as="geometry" />
        </mxCell>
      </root>
    </mxGraphModel>
  </diagram>
</mxfile>
